<?xml version="1.0" encoding="UTF-8"?>
<!DOCTYPE svg PUBLIC "-//W3C//DTD SVG 1.1//EN" "http://www.w3.org/Graphics/SVG/1.1/DTD/svg11.dtd">
<!-- Creator: CorelDRAW X7 -->
<svg xmlns="http://www.w3.org/2000/svg" xml:space="preserve" width="8.26772in" height="11.6929in" version="1.1" style="shape-rendering:geometricPrecision; text-rendering:geometricPrecision; image-rendering:optimizeQuality; fill-rule:evenodd; clip-rule:evenodd"
viewBox="0 0 8268 11693"
 xmlns:xlink="http://www.w3.org/1999/xlink">
 <defs>
  <style type="text/css">
   <![CDATA[
    .fil0 {fill:#373435}
   ]]>
  </style>
 </defs>
 <g id="Layer_x0020_1">
  <metadata id="CorelCorpID_0Corel-Layer"/>
  <path class="fil0" d="M2565 4563l291 218c152,108 386,304 510,385l298 223c15,14 69,49 72,65 -5,47 -44,51 -75,76l-260 198c-31,23 -53,44 -86,66l-261 198c-159,103 -302,233 -437,327l-262 196c-159,122 -134,347 69,440 49,22 124,11 168,-3 41,-13 58,-34 93,-58l177 -129c3,-4 14,-12 19,-16 1,-1 3,-2 4,-3l105 -82c92,-64 225,-158 305,-229 21,-19 64,-52 88,-66 23,-13 28,-13 45,-30 41,-40 137,-95 170,-129 20,-20 20,-17 45,-32 38,-24 55,-46 84,-68l179 -128c51,-37 96,-80 150,-114 11,-7 14,-8 25,-17l153 -111c31,-16 34,-34 63,-54 39,-26 69,-52 98,-89 12,-16 14,-31 22,-54 9,-26 12,-77 11,-110 -3,-144 -126,-182 -160,-226 -24,-30 -3,-11 -41,-32l-45 -34c-18,-24 -40,-25 -63,-47 -48,-45 -109,-68 -160,-111 -29,-25 -56,-46 -84,-68 -26,-21 -59,-44 -88,-65l-175 -131c-47,-42 -113,-76 -174,-132l-218 -163c-20,-13 -28,-21 -43,-34 -18,-16 -26,-17 -45,-31l-131 -99c-27,-23 -62,-39 -90,-62 -35,-28 -135,-115 -168,-130 -33,-8 -29,-8 -58,-27l-19 -15c-1,-1 -3,-3 -4,-4l-15 -12c-141,-107 -333,-20 -374,124 -75,258 242,336 292,429z"/>
 </g>
</svg>
